# xmcd
#
# Track frame offsets:
#	183
#	18620
#	33220
#	48098
#	64938
#	80428
#	95148
#	110708
#	126735
#	145415
#	160078
#	175008
#	192530
#	207995
#	222735
#	238330
#
# Disc length: 3388 seconds
#
# Revision: 1
# Processed by: cddbd v1.5.2PL0 Copyright (c) Steve Scherf et al.
# Submitted via: EasyCDDAExtractor 10.0.5.1
#
DISCID=fa0d3a10
DTITLE=Nubeluz - A Gozar !!
DYEAR=1992
DGENRE=Infantil
TTITLE0=Nubeluz
TTITLE1=Papi deja de fumar
TTITLE2=A gozar
TTITLE3=Yo quiero ser
TTITLE4=Deporte
TTITLE5=La alegría de vivir
TTITLE6=Cuidado
TTITLE7=Solo un beso
TTITLE8=Nubeluz (Karaoke)
TTITLE9=Papi deja de fumar (Karaoke)
TTITLE10=A gozar (Karaoke)
TTITLE11=Yo quiero ser (Karaoke)
TTITLE12=Deporte (Karaoke)
TTITLE13=La alegría de vivir (Karaoke)
TTITLE14=Cuidado (Karaoke)
TTITLE15=Solo un beso
EXTD=
EXTT0=
EXTT1=
EXTT2=
EXTT3=
EXTT4=
EXTT5=
EXTT6=
EXTT7=
EXTT8=
EXTT9=
EXTT10=
EXTT11=
EXTT12=
EXTT13=
EXTT14=
EXTT15=
PLAYORDER=
